# AST/ASF file generated using VICON BodyLanguage
# -----------------------------------------------
:version 1.10
:name VICON
:units
  mass 1.0
  length 0.45
  angle deg
:documentation
   .ast/.asf automatically generated from VICON data using
   VICON BodyBuilder and BodyLanguage model FoxedUp or BRILLIANT.MOD
:root
   order TX TY TZ RX RY RZ
   axis XYZ
   position 0 0 0  
   orientation 0 0 0 
:bonedata
  begin
     id 1 
     name lhipjoint
     direction 0.655637 -0.713449 0.247245 
     length 2.52691 
     axis 0 0 0  XYZ
  end
  begin
     id 2 
     name lfemur
     direction 0.34202 -0.939693 0  
     length 7.59371  
     axis 0 0 20  XYZ
    dof rx ry rz
    limits (-160.0 20.0)
           (-70.0 70.0)
           (-60.0 70.0)
  end
  begin
     id 3 
     name ltibia
     direction 0.34202 -0.939693 0   
     length 7.28717   
     axis 0 0 20   XYZ
    dof rx
    limits (-10.0 170.0)
  end
  begin
     id 4 
     name lfoot
     direction 0.0886837 -0.243657 0.965798   
     length 2.2218   
     axis -90 7.62852e-016 20   XYZ
    dof rx rz
    limits (-45.0 90.0)
           (-70.0 20.0)
  end
  begin
     id 5 
     name ltoes
     direction 1.53547e-011 -4.22004e-011 1   
     length 1.11249   
     axis -90 7.62852e-016 20   XYZ
    dof rx
    limits (-90.0 20.0)
  end
  begin
     id 6 
     name rhipjoint
     direction -0.645062 -0.722004 0.250209   
     length 2.49697  
     axis 0 0 0  XYZ 
  end
  begin
     id 7 
     name rfemur
     direction -0.34202 -0.939693 0   
     length 7.58734   
     axis 0 0 -20   XYZ
    dof rx ry rz
    limits (-160.0 20.0)
           (-70.0 70.0)
           (-70.0 60.0)
  end
  begin
     id 8 
     name rtibia
     direction -0.34202 -0.939693 0   
     length 7.21538   
     axis 0 0 -20   XYZ
    dof rx
    limits (-10.0 170.0)
 end
 begin
     id 9 
     name rfoot
     direction -0.102907 -0.282735 0.953662   
     length 2.23735  
     axis -90 -7.62852e-016 -20   XYZ
    dof rx rz
    limits (-45.0 90.0)
           (-20.0 70.0)
  end
  begin
     id 10 
     name rtoes
     direction -1.5354e-011 -4.21751e-011 1   
     length 1.11569   
     axis -90 -7.62852e-016 -20   XYZ
    dof rx
    limits (-90.0 20.0)
  end
  begin
     id 11 
     name lowerback
     direction 0.00952301 0.997604 -0.0685217   
     length 2.05943   
     axis 0 0 0   XYZ
    dof rx ry rz
    limits (-20.0 45.0)
           (-30.0 30.0)
           (-30.0 30.0)
  end
  begin
     id 12 
     name upperback
     direction 0.00494399 0.999577 -0.0286701   
     length 2.06523   
     axis 0 0 0   XYZ
    dof rx ry rz
    limits (-20.0 45.0)
           (-30.0 30.0)
           (-30.0 30.0)
  end
  begin
     id 13 
     name thorax
     direction 0.000729686 0.999992 0.00388603   
     length 2.06807   
     axis 0 0 0   XYZ
    dof rx ry rz
    limits (-20.0 45.0)
           (-30.0 30.0)
           (-30.0 30.0)
  end
  begin
     id 14 
     name lowerneck
     direction 0.00452882 0.995459 0.0950816   
     length 1.57426   
     axis 0 0 0   XYZ
    dof rx ry rz
    limits (-20.0 45.0)
           (-30.0 30.0)
           (-30.0 30.0)
  end
  begin
     id 15 
     name upperneck
     direction 0.021922 0.997711 -0.0639762   
     length 1.56399   
     axis 0 0 0   XYZ
    dof rx ry rz
    limits (-20.0 45.0)
           (-30.0 30.0)
           (-30.0 30.0)
  end
  begin
     id 16
     name head
     direction 0.008024 0.999444 -0.0323691  
     length 1.6265  
     axis 0 0 0   XYZ
    dof rx ry rz
    limits (-20.0 45.0)
           (-30.0 30.0)
           (-30.0 30.0)
  end
  begin
     id 17 
     name lclavicle
     direction 0.967826 0.247107 -0.0474446  
     length 3.6598  
     axis 0 0 0   XYZ
    dof ry rz
    limits (-20.0 10.0)
           (0.0 20.0)
  end
  begin
     id 18 
     name lhumerus
     direction 1 -4.48971e-011 -2.90544e-027   
     length 4.86513   
     axis 180 -30 -90   XYZ
    dof rx ry rz
    limits (-60.0 90.0)
           (-90.0 90.0)
           (-90.0 90.0)
  end
  begin
     id 19
     name lradius
     direction 1 -4.48958e-011 1.79638e-026   
     length 3.35554   
     axis 180 -30 -90   XYZ
    dof rx
    limits (-10.0 170.0)
  end
  begin
     id 20
     name lwrist
     direction 1 -4.48952e-011 3.34345e-026   
     length 1.67777   
     axis -2.22354e-014 90 90   XYZ
    dof ry
    limits (-180.0 0.0)
 end
  begin
     id 21 
     name lhand
     direction 1 -4.49055e-011 6.6869e-026   
     length 0.661175   
     axis -4.26681e-014 90 90   XYZ
    dof rx rz
    limits (-90.0 90.0)
           (-45.0 45.0)
  end
  begin
     id 22 
     name lfingers
     direction 1 -4.48731e-011 1.33738e-025   
     length 0.533057   
     axis -8.53362e-014 90 90   XYZ
    dof rx
    limits (0.0 90.0)
  end
  begin
     id 23
     name lthumb
     direction 0.707107 -6.35005e-011 0.707107   
     length 0.765366   
     axis -90 45 2.85299e-015   XYZ
    dof rx rz
    limits (-45.0 45.0)
           (-45.0 45.0)
  end
  begin
     id 24 
     name rclavicle
     direction -0.973174 0.211421 -0.0907389   
     length 3.59444  
     axis 0 0 0   XYZ 
    dof ry rz
    limits (-10.0 20.0)
           (-20.0 0.0)
  end
  begin
     id 25 
     name rhumerus
     direction -1 -4.48964e-011 1.56311e-027  
     length 5.02649   
     axis 180 30 90   XYZ
    dof rx ry rz
    limits (-90.0 60.0)
           (-90.0 90.0)
           (-90.0 90.0)
  end
  begin
     id 26 
     name rradius
     direction -1 -4.48948e-011 2.01724e-026   
     length 3.36431   
     axis 180 30 90   XYZ
    dof rx
    limits (-10.0 170.0)
  end
  begin
     id 27 
     name rwrist
     direction -1 -4.49008e-011 3.34345e-026   
     length 1.68216   
     axis -2.22354e-014 -90 -90   XYZ
    dof ry
    limits (-180.0 0.0)
  end
  begin
     id 28
     name rhand
     direction -1 -4.49013e-011 6.6869e-026   
     length 0.730406   
     axis -4.26681e-014 -90 -90   XYZ
    dof rx rz
    limits (-90.0 90.0)
           (-45.0 45.0)
  end
  begin
     id 29
     name rfingers
     direction -1 -4.48867e-011 1.33738e-025   
     length 0.588872   
     axis -8.53362e-014 -90 -90   XYZ
    dof rx
    limits (0.0 90.0)
  end
  begin
     id 30
     name rthumb
     direction -0.707107 -6.34907e-011 0.707107   
     length 0.845506   
     axis -90 -45 -2.85299e-015   XYZ
    dof rx rz
    limits (-45.0 45.0)
           (-45.0 45.0)
  end
:hierarchy
  begin
    root lhipjoint rhipjoint lowerback
    lhipjoint lfemur
    lfemur ltibia
    ltibia lfoot
    lfoot ltoes
    rhipjoint rfemur
    rfemur rtibia
    rtibia rfoot
    rfoot rtoes
    lowerback upperback
    upperback thorax
    thorax lowerneck lclavicle rclavicle
    lowerneck upperneck
    upperneck head
    lclavicle lhumerus
    lhumerus lradius
    lradius lwrist
    lwrist lhand lthumb
    lhand lfingers
    rclavicle rhumerus
    rhumerus rradius
    rradius rwrist
    rwrist rhand rthumb
    rhand rfingers
  end

#!OML:ASF H:\Terrain\Patient Classification 1\Takeo\Monday\TakeoMonday.ASF
:FULLY-SPECIFIED
:DEGREES
163
root 10.5099 23.6619 2.07161 4.10459 -4.48152 -1.92837
lowerback 10.3943 -0.25281 1.48391
upperback -2.07125 -0.113275 0.336108
thorax -8.04362 -0.116556 -0.461233
lowerneck -14.7384 1.93907 -0.880756
upperneck 6.15693 2.94963 -1.96121
head 4.24012 1.3078 -0.235932
rclavicle 3.90736e-015 2.66371e-014
rhumerus -66.0607 16.2841 -92.7998
rradius 68.5027
rwrist -25.8328
rhand -31.7646 22.3693
rfingers 7.12502
rthumb -5.0214 -7.55122
lclavicle 3.90736e-015 2.66371e-014
lhumerus -63.3991 -15.5646 76.3115
lradius 61.2512
lwrist 23.8434
lhand -24.813 15.9815
lfingers 7.12502
lthumb 1.69215 45.9545
rfemur -9.39698 0.361228 22.206
rtibia 21.0486
rfoot 11.8648 -10.5926
rtoes -12.5904
lfemur -9.14678 2.71633 -19.2393
ltibia 23.1712
lfoot 13.9667 16.8875
ltoes -8.84554
164
root 10.5152 23.4083 2.07417 4.07335 -4.25115 -2.28412
lowerback 10.66 -0.314684 1.75406
upperback -1.88992 -0.149915 0.416233
thorax -8.0035 -0.143769 -0.522182
lowerneck -14.859 1.78455 -0.822981
upperneck 5.87991 2.73351 -2.02548
head 4.17421 1.20158 -0.282381
rclavicle 5.7896e-015 4.07509e-015
rhumerus -67.6875 16.4614 -92.5711
rradius 70.0641
rwrist -25.713
rhand -31.7346 22.1935
rfingers 7.12502
rthumb -4.99248 -7.72769
lclavicle 5.7896e-015 4.07509e-015
lhumerus -64.3864 -17.094 75.6529
lradius 63.2659
lwrist 23.7371
lhand -25.0543 16.171
lfingers 7.12502
lthumb 1.45908 46.1458
rfemur -9.42126 0.923715 22.5092
rtibia 20.21
rfoot 13.0782 -9.76959
rtoes -13.9276
lfemur -9.27785 2.3942 -18.6024
ltibia 22.8198
lfoot 14.1081 17.8044
ltoes -4.70626
165
root 10.5221 23.1426 2.07736 3.85074 -4.06639 -2.37399
lowerback 11.0218 -0.361553 1.69301
upperback -1.62541 -0.211618 0.474474
thorax -7.9279 -0.16756 -0.415005
lowerneck -15.1241 1.7608 -0.997066
upperneck 5.92889 2.71838 -1.79745
head 4.22541 1.20148 -0.182832
rclavicle -4.21175e-015 4.96962e-016
rhumerus -69.225 16.7488 -92.3027
rradius 71.6367
rwrist -25.7637
rhand -31.7708 22.5821
rfingers 7.12502
rthumb -5.02738 -7.33829
lclavicle -4.21175e-015 4.96962e-016
lhumerus -65.4778 -18.5742 75.1448
lradius 65.3735
lwrist 23.9103
lhand -25.8488 15.4135
lfingers 7.12502
lthumb 0.691814 45.3921
rfemur -9.24661 1.35821 22.5464
rtibia 19.5016
rfoot 14.2909 -8.88696
rtoes -14.3562
lfemur -9.25618 2.32753 -18.2795
ltibia 22.4071
lfoot 14.1789 17.8794
ltoes -5.59912
166
root 10.5332 22.8709 2.07899 3.60833 -3.8112 -2.2414
lowerback 11.4387 -0.427117 1.466
upperback -1.41033 -0.326267 0.454464
thorax -7.93664 -0.212593 -0.286544
lowerneck -14.8724 1.81299 -1.02671
upperneck 5.5805 2.76627 -1.63465
head 4.07473 1.24028 -0.128318
rclavicle 2.39784e-015 1.07344e-014
rhumerus -70.728 17.0682 -92.0806
rradius 73.1551
rwrist -25.9186
rhand -31.5984 22.8327
rfingers 7.12502
rthumb -4.861 -7.09155
lclavicle 2.39784e-015 1.07344e-014
lhumerus -66.5733 -20.1943 74.6465
lradius 67.5089
lwrist 24.5064
lhand -26.3821 15.3337
lfingers 7.12502
lthumb 0.176703 45.3133
rfemur -9.16414 1.57968 22.3334
rtibia 19.1239
rfoot 15.1885 -8.16581
rtoes -13.7381
lfemur -9.20035 2.014 -18.2435
ltibia 21.9637
lfoot 14.7338 18.0347
ltoes -6.71221
167
root 10.5453 22.5903 2.07909 3.52271 -3.54306 -2.05823
lowerback 11.7719 -0.4763 1.22031
upperback -1.33241 -0.426215 0.398607
thorax -8.04366 -0.251641 -0.186994
lowerneck -14.3829 1.76992 -0.668548
upperneck 4.76652 2.6429 -1.85707
head 4.19404 1.18777 -0.293118
rclavicle -3.85145e-016 -1.19271e-015
rhumerus -72.4696 17.3542 -91.9672
rradius 74.7447
rwrist -26.5124
rhand -31.5761 22.7888
rfingers 7.12502
rthumb -4.83946 -7.13595
lclavicle -3.85145e-016 -1.19271e-015
lhumerus -67.4837 -21.6679 74.0332
lradius 69.4938
lwrist 25.1161
lhand -26.0591 16.0511
lfingers 7.12502
lthumb 0.488705 46.0302
rfemur -9.39312 1.81179 22.0651
rtibia 19.1029
rfoot 16.0211 -7.4942
rtoes -14.3163
lfemur -9.28535 1.64854 -18.2958
ltibia 21.6055
lfoot 15.8227 18.3794
ltoes -5.41031
168
root 10.5543 22.288 2.07419 3.51317 -3.2871 -1.84677
lowerback 11.9521 -0.480528 0.95367
upperback -1.15072 -0.474431 0.337088
thorax -7.94993 -0.26389 -0.0925845
lowerneck -14.7146 1.66104 -0.533766
upperneck 5.11902 2.49171 -1.99814
head 3.91769 1.10103 -0.343693
rclavicle -1.15171e-014 6.26172e-015
rhumerus -73.9139 17.5144 -91.7344
rradius 76.3116
rwrist -27.3965
rhand -31.6405 22.3477
rfingers 7.12502
rthumb -4.90159 -7.57561
lclavicle -1.15171e-014 6.26172e-015
lhumerus -67.8006 -22.879 73.2967
lradius 71.1296
lwrist 25.2914
lhand -25.4034 16.1612
lfingers 7.12502
lthumb 1.12192 46.138
rfemur -9.8099 2.18551 21.8023
rtibia 19.2795
rfoot 17.0198 -7.11979
rtoes -14.9597
lfemur -9.58451 1.57018 -18.3937
ltibia 21.5509
lfoot 16.975 17.9523
ltoes -5.14044
169
root 10.5609 21.9701 2.06703 3.24774 -2.89331 -1.67769
lowerback 12.2764 -0.535109 0.793872
upperback -0.756457 -0.577387 0.233179
thorax -7.7116 -0.307986 -0.0931425
lowerneck -15.065 1.59038 -0.473774
upperneck 4.84868 2.37015 -1.84399
head 3.88705 1.05194 -0.313716
rclavicle -9.69075e-016 -2.44505e-014
rhumerus -74.8666 17.5655 -91.5522
rradius 77.5642
rwrist -28.3573
rhand -31.7111 21.8619
rfingers 7.12502
rthumb -4.96975 -8.05986
lclavicle -9.69075e-016 -2.44505e-014
lhumerus -67.715 -23.9178 72.3685
lradius 72.5542
lwrist 25.3886
lhand -25.0775 15.7396
lfingers 7.12502
lthumb 1.43675 45.7145
rfemur -10.0014 2.42801 21.6278
rtibia 19.5997
rfoot 17.9108 -7.21029
rtoes -13.4509
lfemur -9.84014 1.45093 -18.4501
ltibia 22.0278
lfoot 17.6444 17.299
ltoes -5.32929
170
root 10.5668 21.645 2.06327 2.93619 -2.44529 -1.83501
lowerback 12.6417 -0.650839 0.914217
upperback -0.386352 -0.711608 0.229696
thorax -7.52498 -0.376651 -0.138545
lowerneck -15.0262 1.54114 -0.354801
upperneck 4.07183 2.25408 -1.6455
head 4.07008 1.01695 -0.306808
rclavicle -6.26172e-015 4.17448e-015
rhumerus -75.7699 17.6681 -91.5125
rradius 78.5944
rwrist -29.4991
rhand -31.8072 21.5448
rfingers 7.12502
rthumb -5.06259 -8.37473
lclavicle -6.26172e-015 4.17448e-015
lhumerus -67.7805 -24.7668 71.5941
lradius 73.7768
lwrist 25.5768
lhand -25.1482 15.1994
lfingers 7.12502
lthumb 1.36842 45.1748
rfemur -10.1542 2.46337 21.8552
rtibia 20.2193
rfoot 18.509 -7.43791
rtoes -12.0513
lfemur -10.2276 1.39037 -18.1808
ltibia 23.0672
lfoot 18.2605 16.9464
ltoes -4.82979
171
root 10.5722 21.3042 2.05373 2.90062 -2.13348 -2.04938
lowerback 12.7756 -0.702604 1.06184
upperback -0.0832745 -0.755479 0.270189
thorax -7.27818 -0.401177 -0.171712
lowerneck -15.14 1.39518 -0.5187
upperneck 3.78238 2.06325 -1.3625
head 3.98063 0.936642 -0.197372
rclavicle 1.80646e-014 -1.68967e-014
rhumerus -76.5901 17.6807 -91.4162
rradius 79.5916
rwrist -30.7578
rhand -31.7002 21.0612
rfingers 7.12502
rthumb -4.95924 -8.8608
lclavicle 1.80646e-014 -1.68967e-014
lhumerus -67.6853 -25.6993 71.0034
lradius 74.8
lwrist 25.5963
lhand -25.2607 14.7682
lfingers 7.12502
lthumb 1.25977 44.7442
rfemur -10.7233 2.86969 22.1591
rtibia 21.2992
rfoot 19.072 -7.85191
rtoes -11.6043
lfemur -11.1265 1.64217 -17.8794
ltibia 24.534
lfoot 18.9243 16.6669
ltoes -3.26334
172
root 10.5782 20.9429 2.02769 2.91799 -1.82423 -2.05279
lowerback 12.9962 -0.761054 1.05701
upperback 0.317992 -0.840067 0.177933
thorax -6.97625 -0.441668 -0.251427
lowerneck -15.6652 1.30178 -0.574754
upperneck 3.39084 1.92211 -1.03357
head 3.93807 0.884098 -0.0854388
rclavicle 1.82882e-014 -8.54774e-015
rhumerus -77.016 17.6493 -91.4491
rradius 80.4072
rwrist -31.9759
rhand -31.4095 20.2524
rfingers 7.12502
rthumb -4.67854 -9.6759
lclavicle 1.82882e-014 -8.54774e-015
lhumerus -67.0149 -26.6838 70.1387
lradius 75.7141
lwrist 25.5563
lhand -25.5334 14.6186
lfingers 7.12502
lthumb 0.996395 44.596
rfemur -11.6558 3.30691 22.2537
rtibia 22.9332
rfoot 19.7028 -7.93913
rtoes -10.5397
lfemur -12.2786 2.09102 -17.8414
ltibia 26.3116
lfoot 19.6497 15.6858
ltoes -2.43095
173
root 10.5842 20.5681 1.98967 2.72453 -1.42434 -1.84677
lowerback 13.6234 -0.857009 0.74772
upperback 0.740072 -1.01602 0.0754126
thorax -6.87641 -0.51734 -0.146934
lowerneck -16.2675 1.30923 -0.430366
upperneck 2.92354 1.89209 -0.904261
head 3.88847 0.87936 -0.0676922
rclavicle -1.98785e-016 6.75868e-015
rhumerus -77.2253 17.8053 -91.5896
rradius 80.9132
rwrist -33.2201
rhand -31.2673 19.5762
rfingers 7.12502
rthumb -4.54124 -10.3551
lclavicle -1.98785e-016 6.75868e-015
lhumerus -66.2412 -27.4919 69.4288
lradius 76.3628
lwrist 25.9577
lhand -26.1335 14.2796
lfingers 7.12502
lthumb 0.416828 44.2589
rfemur -12.6964 3.38588 22.1605
rtibia 25.112
rfoot 20.075 -7.55051
rtoes -9.66885
lfemur -13.2791 2.21227 -18.0547
ltibia 28.3616
lfoot 20.3207 13.8474
ltoes -4.83798
174
root 10.5915 20.1879 1.94939 2.45456 -1.08974 -1.43419
lowerback 14.3884 -0.859663 0.155195
upperback 1.04641 -1.10931 0.0596088
thorax -6.96623 -0.543694 0.198436
lowerneck -16.3377 1.18001 -0.518553
upperneck 2.33285 1.73892 -1.00852
head 3.68967 0.800582 -0.101451
rclavicle -1.24737e-014 -3.37934e-015
rhumerus -77.542 17.9185 -91.4991
rradius 81.2784
rwrist -34.4276
rhand -31.1957 19.6656
rfingers 7.12502
rthumb -4.47208 -10.2672
lclavicle -1.24737e-014 -3.37934e-015
lhumerus -65.5787 -28.3082 69.1943
lradius 76.8129
lwrist 26.4525
lhand -26.4176 13.6429
lfingers 7.12502
lthumb 0.142424 43.6226
rfemur -13.8083 3.50592 21.8396
rtibia 27.6409
rfoot 20.3529 -7.02646
rtoes -9.30696
lfemur -14.1927 1.94946 -18.5207
ltibia 30.603
lfoot 20.3944 12.4794
ltoes -6.7945
175
root 10.5979 19.796 1.90133 2.353 -0.807647 -1.14781
lowerback 15.0992 -0.839963 -0.245733
upperback 1.23301 -1.14896 0.0488467
thorax -7.15432 -0.549715 0.43186
lowerneck -15.9873 1.04267 -0.654736
upperneck 1.58081 1.57263 -1.04235
head 3.35229 0.721607 -0.106366
rclavicle 6.16232e-015 -2.5842e-015
rhumerus -77.7783 17.7953 -91.376
rradius 81.5305
rwrist -35.3987
rhand -30.7451 19.4325
rfingers 7.12502
rthumb -4.03703 -10.509
lclavicle 6.16232e-015 -2.5842e-015
lhumerus -64.5527 -29.139 68.8056
lradius 77.043
lwrist 26.1517
lhand -25.341 13.9672
lfingers 7.12502
lthumb 1.18221 43.9437
rfemur -15.1477 3.75805 21.6807
rtibia 30.3066
rfoot 20.546 -6.39138
rtoes -9.79871
lfemur -15.3989 1.65421 -18.8856
ltibia 32.9941
lfoot 20.2706 11.4048
ltoes -6.86741
176
root 10.6085 19.3893 1.84597 2.25465 -0.49162 -1.18535
lowerback 15.9404 -0.887007 -0.123872
upperback 1.38976 -1.19599 -0.0248606
thorax -7.45677 -0.575632 0.307169
lowerneck -15.6526 1.00212 -0.759337
upperneck 0.862872 1.50553 -0.684433
head 3.03094 0.710026 0.0209925
rclavicle 3.47873e-016 9.34288e-015
rhumerus -77.74 17.5306 -91.5317
rradius 81.501
rwrist -36.2983
rhand -30.0114 18.6501
rfingers 7.12502
rthumb -3.32851 -11.3037
lclavicle 3.47873e-016 9.34288e-015
lhumerus -63.2393 -30.1695 68.3739
lradius 76.9627
lwrist 25.9381
lhand -24.1726 14.5641
lfingers 7.12502
lthumb 2.31066 44.5313
rfemur -16.6231 3.99084 21.8732
rtibia 33.1357
rfoot 19.5945 -5.87427
rtoes -12.1906
lfemur -16.8109 1.2949 -18.9202
ltibia 35.6937
lfoot 19.6271 10.0686
ltoes -6.14919
177
root 10.6225 18.9718 1.79634 2.03449 -0.170463 -1.31852
lowerback 16.7636 -0.942672 0.126782
upperback 1.71134 -1.22387 -0.0455558
thorax -7.57111 -0.596181 0.159831
lowerneck -15.5177 0.968724 -0.97333
upperneck 0.109512 1.47404 -0.331034
head 2.73817 0.713418 0.168105
rclavicle -2.48481e-015 9.74045e-015
rhumerus -77.4303 17.3294 -91.639
rradius 81.3703
rwrist -37.2638
rhand -29.2077 18.0718
rfingers 7.12502
rthumb -2.55233 -11.8927
lclavicle -2.48481e-015 9.74045e-015
lhumerus -61.6108 -31.3796 68.1062
lradius 76.746
lwrist 26.0536
lhand -23.7704 14.8121
lfingers 7.12502
lthumb 2.69907 44.7748
rfemur -18.0863 4.24388 22.1375
rtibia 36.3333
rfoot 16.8793 -5.10969
rtoes -14.969
lfemur -18.1774 1.15124 -18.8811
ltibia 38.8923
lfoot 15.1766 8.09365
ltoes -15.35
